<svg width="108" height="30" viewBox="0 0 108 30" fill="none" xmlns="http://www.w3.org/2000/svg">
<path d="M25 10.1983C24.9996 9.77736 24.8864 9.36396 24.6719 8.99955C24.4574 8.63514 24.149 8.33252 23.7778 8.12206L15.2222 3.32157C14.8506 3.11091 14.4291 3 14 3C13.5709 3 13.1494 3.11091 12.7778 3.32157L4.22222 8.12206C3.85099 8.33252 3.54264 8.63514 3.32812 8.99955C3.1136 9.36396 3.00044 9.77736 3 10.1983V19.7993C3.00044 20.2202 3.1136 20.6336 3.32812 20.998C3.54264 21.3624 3.85099 21.665 4.22222 21.8755L12.7778 26.676C13.1494 26.8866 13.5709 26.9975 14 26.9975C14.4291 26.9975 14.8506 26.8866 15.2222 26.676L23.7778 21.8755C24.149 21.665 24.4574 21.3624 24.6719 20.998C24.8864 20.6336 24.9996 20.2202 25 19.7993V10.1983Z" stroke="black" stroke-width="2" stroke-linecap="round" stroke-linejoin="round"/>
<path d="M3.36664 8.99811L14 14.9987M14 14.9987L24.6333 8.99811M14 14.9987V27" stroke="black" stroke-width="2" stroke-linecap="round" stroke-linejoin="round"/>
<path d="M31.6 25L38.41 3.40002H43.705L50.515 25H46.795L40.615 5.62002H41.425L35.32 25H31.6ZM35.395 20.32V16.945H46.735V20.32H35.395Z" fill="black"/>
<path d="M61.0119 25.45C59.4319 25.45 58.1069 25.075 57.0369 24.325C55.9669 23.575 55.1619 22.555 54.6219 21.265C54.0819 19.965 53.8119 18.51 53.8119 16.9C53.8119 15.27 54.0819 13.81 54.6219 12.52C55.1619 11.23 55.9519 10.215 56.9919 9.47502C58.0419 8.72502 59.3369 8.35002 60.8769 8.35002C62.4069 8.35002 63.7319 8.72502 64.8519 9.47502C65.9819 10.215 66.8569 11.23 67.4769 12.52C68.0969 13.8 68.4069 15.26 68.4069 16.9C68.4069 18.52 68.1019 19.975 67.4919 21.265C66.8819 22.555 66.0219 23.575 64.9119 24.325C63.8019 25.075 62.5019 25.45 61.0119 25.45ZM53.1969 25V3.40002H56.8419V13.63H56.3919V25H53.1969ZM60.4569 22.21C61.3969 22.21 62.1719 21.975 62.7819 21.505C63.3919 21.035 63.8419 20.4 64.1319 19.6C64.4319 18.79 64.5819 17.89 64.5819 16.9C64.5819 15.92 64.4319 15.03 64.1319 14.23C63.8319 13.42 63.3669 12.78 62.7369 12.31C62.1069 11.83 61.3069 11.59 60.3369 11.59C59.4169 11.59 58.6669 11.815 58.0869 12.265C57.5069 12.705 57.0769 13.325 56.7969 14.125C56.5269 14.915 56.3919 15.84 56.3919 16.9C56.3919 17.95 56.5269 18.875 56.7969 19.675C57.0769 20.475 57.5119 21.1 58.1019 21.55C58.7019 21.99 59.4869 22.21 60.4569 22.21Z" fill="black"/>
<path d="M72.0133 6.34002V3.02502H75.6283V6.34002H72.0133ZM72.0133 25V8.80002H75.6283V25H72.0133Z" fill="black"/>
<path d="M89.6165 25C88.5465 25.2 87.4965 25.285 86.4665 25.255C85.4465 25.235 84.5315 25.05 83.7215 24.7C82.9115 24.34 82.2965 23.775 81.8765 23.005C81.5065 22.305 81.3115 21.59 81.2915 20.86C81.2715 20.13 81.2615 19.305 81.2615 18.385V4.30002H84.8615V18.175C84.8615 18.825 84.8665 19.395 84.8765 19.885C84.8965 20.375 85.0015 20.775 85.1915 21.085C85.5515 21.685 86.1265 22.02 86.9165 22.09C87.7065 22.16 88.6065 22.12 89.6165 21.97V25ZM78.3215 11.635V8.80002H89.6165V11.635H78.3215Z" fill="black"/>
<path d="M99.4347 25.45C97.8147 25.45 96.3997 25.085 95.1897 24.355C93.9797 23.625 93.0397 22.62 92.3697 21.34C91.7097 20.05 91.3797 18.57 91.3797 16.9C91.3797 15.2 91.7197 13.71 92.3997 12.43C93.0797 11.15 94.0247 10.15 95.2347 9.43002C96.4447 8.71002 97.8447 8.35002 99.4347 8.35002C101.065 8.35002 102.485 8.71502 103.695 9.44502C104.905 10.175 105.845 11.185 106.515 12.475C107.185 13.755 107.52 15.23 107.52 16.9C107.52 18.58 107.18 20.065 106.5 21.355C105.83 22.635 104.89 23.64 103.68 24.37C102.47 25.09 101.055 25.45 99.4347 25.45ZM99.4347 22.06C100.875 22.06 101.945 21.58 102.645 20.62C103.345 19.66 103.695 18.42 103.695 16.9C103.695 15.33 103.34 14.08 102.63 13.15C101.92 12.21 100.855 11.74 99.4347 11.74C98.4647 11.74 97.6647 11.96 97.0347 12.4C96.4147 12.83 95.9547 13.435 95.6547 14.215C95.3547 14.985 95.2047 15.88 95.2047 16.9C95.2047 18.47 95.5597 19.725 96.2697 20.665C96.9897 21.595 98.0447 22.06 99.4347 22.06Z" fill="black"/>
</svg>
